<?xml version="1.0" encoding="utf-8"?>
<svg version="1.1" xmlns="http://www.w3.org/2000/svg" xmlns:xlink="http://www.w3.org/1999/xlink" x="0px" y="0px"
	 viewBox="0 0 512 512" enable-background="new 0 0 512 512" xml:space="preserve">
<path id="classic_inner_bg" class="background" fill="#DBDBDB" d="M480,512H32c-17.6,0-32-14.4-32-32V32C0,14.4,14.4,0,32,0h448
	c17.6,0,32,14.4,32,32v448C512,497.6,497.6,512,480,512z"/>
<path id="classic_bottom_right" class="dark_shadow" fill="#AFAFAF" d="M501.5,8.4l-48.5,38.8c2.4,2.2,3.9,5.4,3.9,8.9v376c0,6.6-5.4,12-12,12H69
	c-3.5,0-6.6-1.5-8.8-3.9L8.6,501.8C14.4,508,22.8,512,32,512h448c17.6,0,32-14.4,32-32V32C512,22.7,508,14.2,501.5,8.4z"/>
<path id="classic_top_left" class="light_shadow" fill="#DFDFDF" d="M57,432V56c0-6.6,5.4-12,12-12h376c3.1,0,5.9,1.2,8.1,3.1l48.5-38.8
	C495.8,3.2,488.3,0,480,0H32C14.4,0,0,14.4,0,32v448c0,8.4,3.3,16,8.6,21.8l51.6-61.6C58.2,438,57,435.1,57,432z"/>
<path id="classic_line" class="front_line" fill="none" stroke="#FFFFFF" stroke-width="3" stroke-miterlimit="10" d="M445,444H69
	c-6.6,0-12-5.4-12-12V56c0-6.6,5.4-12,12-12h376c6.6,0,12,5.4,12,12v376C457,438.6,451.6,444,445,444z"/>
</svg>
