<?xml version="1.0" encoding="utf-8"?>
<svg version="1.1"  xmlns="http://www.w3.org/2000/svg" xmlns:xlink="http://www.w3.org/1999/xlink" x="0px" y="0px"
	 viewBox="0 0 512 512" enable-background="new 0 0 512 512" xml:space="preserve">
<path id="plain_bg" class="background" fill="#FFFFFF" d="M480,512H32c-17.6,0-32-14.4-32-32V32C0,14.4,14.4,0,32,0h448c17.6,0,32,14.4,32,32v448
	C512,497.6,497.6,512,480,512z"/>
<path id="plain_line" class="front_line" fill="none" stroke="#000000" stroke-width="4" stroke-miterlimit="10" d="M444,456H68
	c-6.6,0-12-5.4-12-12V68c0-6.6,5.4-12,12-12h376c6.6,0,12,5.4,12,12v376C456,450.6,450.6,456,444,456z"/>
</svg>
