<?xml version="1.0" encoding="utf-8"?>
<svg version="1.1" xmlns="http://www.w3.org/2000/svg" xmlns:xlink="http://www.w3.org/1999/xlink" x="0px" y="0px"
	 viewBox="0 0 1024 512" enable-background="new 0 0 1024 512" xml:space="preserve">
<path id="classic_inner_bg" class="background" fill="#DBDBDB" d="M992,512H32c-17.6,0-32-14.4-32-32V32C0,14.4,14.4,0,32,0h960
	c17.6,0,32,14.4,32,32v448C1024,497.6,1009.6,512,992,512z"/>
<path class="dark_shadow" fill="#AFAFAF" d="M1013.5,8.4l-48.5,38.8c2.4,2.2,3.9,5.4,3.9,8.9v376c0,6.6-5.4,12-12,12H817H187H69c-3.5,0-6.6-1.5-8.8-3.9
	L8.6,501.8C14.4,508,22.8,512,32,512h155h630h175c17.6,0,32-14.4,32-32V32C1024,22.7,1020,14.2,1013.5,8.4z"/>
<path class="light_shadow" fill="#DFDFDF" d="M992,0h-183h-42.7H192H32C14.4,0,0,14.4,0,32v448c0,8.4,3.3,16,8.6,21.8l51.6-61.6c-2-2.1-3.2-5-3.2-8.1V56
	c0-6.6,5.4-12,12-12h123h574.3H957c3.1,0,5.9,1.2,8.1,3.1l48.5-38.8C1007.8,3.2,1000.2,0,992,0z"/>
<path id="classic_line" class="front_line" fill="none" stroke="#FFFFFF" stroke-width="3" stroke-miterlimit="10" d="M957,444H69
	c-6.6,0-12-5.4-12-12V56c0-6.6,5.4-12,12-12h888c6.6,0,12,5.4,12,12v376C969,438.6,963.6,444,957,444z"/>
</svg>
