<?xml version="1.0" encoding="utf-8"?>
<svg version="1.1" xmlns="http://www.w3.org/2000/svg" xmlns:xlink="http://www.w3.org/1999/xlink" x="0px" y="0px"
	 viewBox="0 0 512 1024" enable-background="new 0 0 512 1024" xml:space="preserve">
<path id="classic_inner_bg" class="background" fill="#DBDBDB" d="M480,1024H32c-17.6,0-32-14.4-32-32V32C0,14.4,14.4,0,32,0h448
	c17.6,0,32,14.4,32,32v960C512,1009.6,497.6,1024,480,1024z"/>
<path class="dark_shadow" fill="#AFAFAF" d="M501.5,8.4l-48.5,38.8c2.4,2.2,3.9,5.4,3.9,8.9v111.6l0,0v569V944c0,6.6-5.4,12-12,12H69
	c-3.5,0-6.6-1.5-8.8-3.9l-51.6,61.6c5.9,6.3,14.2,10.2,23.4,10.2h448c17.6,0,32-14.4,32-32V736.6v-569l0,0V32
	C512,22.7,508,14.2,501.5,8.4z"/>
<path class="light_shadow" fill="#DFDFDF" d="M480,0H32C14.4,0,0,14.4,0,32v214.1v554V992c0,8.4,3.3,16,8.6,21.8l51.6-61.6c-2-2.1-3.2-5-3.2-8.1V800.1
	v-554V56c0-6.6,5.4-12,12-12h376c3.1,0,5.9,1.2,8.1,3.1l48.5-38.8C495.8,3.2,488.3,0,480,0z"/>
<path id="classic_line" class="front_line" fill="none" stroke="#FFFFFF" stroke-width="3" stroke-miterlimit="10" d="M445,956H69
	c-6.6,0-12-5.4-12-12V56c0-6.6,5.4-12,12-12h376c6.6,0,12,5.4,12,12v888C457,950.6,451.6,956,445,956z"/>
</svg>
